<svg version="1.1" id="Layer_1" xmlns="http://www.w3.org/2000/svg" xmlns:xlink="http://www.w3.org/1999/xlink" x="0px" y="0px"
	 width="100%" viewBox="0 0 500 500" enable-background="new 0 0 500 500" xml:space="preserve">
<path fill="#F7F8F8" opacity="1.000000" stroke="none" 
	d="
M1.000000,183.000000 
	C1.000000,122.015106 1.000000,61.530212 1.000000,1.022659 
	C167.609940,1.022659 334.219879,1.022659 500.914917,1.022659 
	C500.914917,167.568283 500.914917,334.136627 500.914917,500.852478 
	C334.333435,500.852478 167.666733,500.852478 1.000000,500.852478 
	C1.000000,395.113312 1.000000,289.306671 1.000000,183.000000 
M444.648193,70.041954 
	C444.062653,69.370834 443.477112,68.699722 442.765900,67.369576 
	C437.938110,62.329502 433.480347,56.859657 428.215820,52.326790 
	C409.510925,36.221375 386.999908,30.902815 362.071686,30.017199 
	C345.055908,30.069283 328.040161,30.121367 310.268738,30.029224 
	C309.504089,30.077667 308.739410,30.126110 307.052734,30.015156 
	C253.251907,30.012039 199.450684,29.900227 145.650589,30.097439 
	C134.879837,30.136919 124.004051,30.609558 113.366165,32.172279 
	C85.299515,36.295315 63.437412,50.518696 48.392017,74.691635 
	C37.302490,92.508804 34.078686,112.440338 34.046833,132.977615 
	C33.935486,204.767609 33.973225,276.557922 34.045975,348.348022 
	C34.053539,355.814667 34.410015,363.303192 35.048332,370.743469 
	C39.192432,419.047577 73.864883,454.072937 122.131432,456.827332 
	C150.673538,458.456146 179.359039,457.572388 208.909592,457.967621 
	C221.273911,457.915680 233.638214,457.863770 246.928650,457.963867 
	C285.289032,457.918091 323.649445,457.872314 362.640778,457.951904 
	C363.023712,457.786713 363.406647,457.621490 363.900299,457.433228 
	C363.900299,457.433228 363.996704,457.492432 364.826355,457.696075 
	C366.221954,457.559845 367.617523,457.423584 369.817230,457.331879 
	C370.878510,457.198792 371.939819,457.065704 373.674133,457.075714 
	C374.113617,456.955719 374.553101,456.835724 375.749390,456.854645 
	C377.499878,456.543823 379.250366,456.233002 381.764740,455.997406 
	C382.504578,455.843323 383.244446,455.689240 384.744415,455.573853 
	C387.851318,454.768250 390.958252,453.962677 394.844025,453.165833 
	C397.059204,452.479614 399.316956,451.906342 401.482941,451.089600 
	C423.162079,442.915405 439.695862,428.887054 450.812408,407.622528 
	C451.867249,404.779266 453.192322,402.003601 453.923889,399.079468 
	C455.758453,391.746674 457.324371,384.346710 459.457520,376.592560 
	C459.622589,375.401886 459.787659,374.211243 460.005798,372.281403 
	C460.063965,371.544250 460.122131,370.807129 460.932281,369.750641 
	C461.233368,363.164856 461.534454,356.579071 461.982239,349.077484 
	C461.934509,345.046844 461.886780,341.016205 461.993805,336.099915 
	C461.942352,333.407806 461.890900,330.715668 461.986725,327.170258 
	C461.937653,325.442322 461.888580,323.714355 461.994141,321.092041 
	C461.942566,318.069214 461.891022,315.046387 461.987061,311.093597 
	C461.937836,301.391266 461.888611,291.688904 461.993134,281.092010 
	C461.941864,278.069153 461.890625,275.046265 461.986511,271.170105 
	C461.937469,269.442261 461.888428,267.714417 461.993408,265.063599 
	C461.942322,259.383667 461.891235,253.703720 461.986969,247.170364 
	C461.938019,245.442291 461.889069,243.714233 461.995392,241.061981 
	C461.943420,232.715958 461.891449,224.369934 461.987061,215.093872 
	C461.938080,194.724640 461.889130,174.355392 461.995026,153.091858 
	C461.942261,150.069138 461.889496,147.046402 461.982971,143.098373 
	C461.909912,138.401276 461.836853,133.704193 461.858704,128.188324 
	C461.607239,126.111404 461.355804,124.034477 461.219360,121.217674 
	C461.146759,120.478668 461.074127,119.739670 461.087402,118.406830 
	C460.749146,118.209641 460.410919,118.012451 460.038452,116.969566 
	C458.962372,109.980598 457.886322,102.991623 456.890411,95.430595 
	C456.633362,94.937431 456.376343,94.444267 456.142273,93.231369 
	C455.404053,91.487991 454.665833,89.744614 453.967834,87.346100 
	C453.384766,86.207390 452.801697,85.068680 452.152710,83.271965 
	C451.513916,82.150421 450.875122,81.028870 450.137207,79.199074 
	C448.376404,76.361191 446.615601,73.523308 444.648193,70.041954 
z"/>
<path fill="#133C3A" opacity="1.000000" stroke="none" 
	d="
M207.980057,457.818512 
	C179.359039,457.572388 150.673538,458.456146 122.131432,456.827332 
	C73.864883,454.072937 39.192432,419.047577 35.048332,370.743469 
	C34.410015,363.303192 34.053539,355.814667 34.045975,348.348022 
	C33.973225,276.557922 33.935486,204.767609 34.046833,132.977615 
	C34.078686,112.440338 37.302490,92.508804 48.392017,74.691635 
	C63.437412,50.518696 85.299515,36.295315 113.366165,32.172279 
	C124.004051,30.609558 134.879837,30.136919 145.650589,30.097439 
	C199.450684,29.900227 253.251907,30.012039 307.189636,30.348568 
	C305.511261,30.788349 303.696136,30.984785 301.880707,30.987230 
	C282.588074,31.013187 263.295380,31.008335 243.533905,31.008650 
	C211.721390,31.652969 180.297470,29.226294 149.043823,33.834476 
	C144.190170,34.550121 143.089859,36.380016 142.903870,40.776703 
	C142.461639,51.231544 143.389587,61.646042 143.251587,72.110657 
	C142.661148,116.878609 143.036041,161.658890 142.959274,206.434494 
	C142.948364,212.798325 142.293457,219.159241 142.161850,225.526154 
	C142.133835,226.881317 142.780045,228.506332 143.647064,229.576523 
	C146.337677,232.897705 144.798508,235.693726 142.441513,237.881302 
	C136.923859,243.002304 136.779602,242.919556 143.726807,246.101791 
	C145.020844,246.694519 146.574265,246.721008 147.964020,247.379822 
	C145.642685,253.299683 143.217209,258.795563 141.197540,264.436676 
	C140.724152,265.758942 141.623856,267.572784 141.879608,269.544556 
	C141.537506,270.617615 141.207642,271.306580 140.520020,272.050598 
	C139.731155,272.341797 139.043655,272.477966 138.906921,272.828796 
	C136.355713,279.374878 133.847870,285.938446 131.448624,292.541107 
	C131.349091,292.815033 132.394318,293.504883 132.946686,294.341919 
	C133.659790,295.134949 134.332458,295.587067 135.095398,296.196716 
	C135.456390,296.247223 135.727081,296.140167 136.459274,295.946777 
	C142.947723,295.921417 148.974640,295.982361 154.991547,296.438751 
	C153.950043,297.880859 153.087524,299.244385 151.849854,299.904480 
	C149.659698,301.072601 147.241364,301.812927 144.918518,302.732300 
	C144.938782,302.600616 144.959045,302.468964 144.979309,302.337311 
	C142.423645,302.783569 139.867981,303.229858 137.312317,303.676117 
	C138.864914,305.311401 140.417526,306.946716 141.970139,308.582001 
	C142.313431,308.376556 142.656708,308.171112 143.000000,307.965698 
	C143.000000,309.773956 143.000000,311.582245 143.000000,313.390503 
	C143.000015,332.685760 142.982971,351.981018 143.009720,371.276245 
	C143.018555,377.649353 143.909836,383.857452 143.448990,390.426880 
	C142.160141,408.800049 142.981796,427.322571 143.012222,445.786072 
	C143.020966,451.093567 145.143723,453.622894 150.292770,453.944489 
	C167.924591,455.045807 185.566879,455.978424 203.202423,457.021881 
	C204.805054,457.116730 206.387985,457.545044 207.980057,457.818512 
z"/>
<path fill="#043531" opacity="1.000000" stroke="none" 
	d="
M383.984283,455.535126 
	C383.244446,455.689240 382.504578,455.843323 381.312866,455.618286 
	C378.157196,452.759857 376.442535,454.211792 374.992584,456.715729 
	C374.553101,456.835724 374.113617,456.955719 373.263428,456.656616 
	C370.936798,454.261200 369.595886,454.387970 369.013123,457.287354 
	C367.617523,457.423584 366.221954,457.559845 364.371948,457.193115 
	C362.408936,455.906311 360.939331,454.547485 359.384766,454.442169 
	C353.820129,454.065155 348.210632,454.333527 342.649384,453.928375 
	C338.387451,453.617920 334.147308,452.781433 329.954681,451.905182 
	C328.898865,451.684570 327.322601,450.480743 327.245667,449.616577 
	C326.767822,444.249512 323.864929,438.733368 328.109680,433.515808 
	C328.927246,432.510864 329.024719,430.664703 328.952789,429.231720 
	C328.339844,417.020264 327.617432,404.814240 326.898895,392.608276 
	C326.860840,391.961609 326.519409,391.338776 326.391113,390.690613 
	C324.302429,380.137543 323.784576,369.724701 328.468933,359.573944 
	C329.149872,358.098389 328.777740,356.011139 328.532379,354.257324 
	C327.782684,348.898041 326.700134,343.582855 326.033661,338.214935 
	C324.763702,327.985962 331.208435,317.982208 327.027557,307.630188 
	C326.914917,307.351196 327.071808,306.972351 327.062958,306.641144 
	C326.878906,299.761292 327.201111,292.818237 326.359467,286.019318 
	C325.478577,278.903076 325.421844,278.270874 332.292236,276.594757 
	C332.571625,276.526581 332.780151,276.167877 333.331360,276.079956 
	C338.659912,281.530212 343.900787,286.657257 348.614899,292.229919 
	C351.476715,295.612976 354.535034,296.592377 359.066589,295.321350 
	C359.066589,288.623627 358.748535,281.831848 359.159607,275.084503 
	C359.540253,268.836304 358.787872,263.298706 353.839783,258.995026 
	C353.309387,258.259674 352.493195,257.703735 351.394165,257.006165 
	C349.723541,255.281845 348.335846,253.699142 346.962097,251.716980 
	C347.319000,248.261902 345.418427,247.844589 342.755615,247.826935 
	C340.589233,245.564362 338.716461,243.453171 336.769226,241.045532 
	C336.357330,240.546356 336.019867,240.343643 335.393036,239.990616 
	C332.407318,236.870392 329.710999,233.900482 327.016113,230.580536 
	C326.340637,228.831757 325.663788,227.432999 324.998322,225.665497 
	C327.158966,220.260223 329.019989,215.067307 331.619995,210.275330 
	C332.483765,208.683273 335.245087,208.120773 336.973846,207.525558 
	C336.744568,215.453598 336.630859,222.943863 336.665314,230.433456 
	C336.670990,231.664551 336.966278,233.221893 337.739838,234.070480 
	C344.481262,241.465958 351.362183,248.734222 359.065277,256.962769 
	C359.065277,239.732468 359.065277,223.668823 358.909729,207.342194 
	C357.507599,206.743698 356.317383,203.238434 354.626892,207.086548 
	C353.504852,207.109024 352.753601,207.057373 351.696228,206.729889 
	C346.927704,206.640930 342.465271,206.827789 337.776184,207.090332 
	C337.549500,207.166016 337.073975,207.117828 337.021515,206.758545 
	C336.326355,203.169891 334.747009,203.209213 331.968597,204.360413 
	C327.590027,206.174606 325.916077,204.287369 326.109711,199.803375 
	C326.407318,192.912003 327.105103,185.727203 325.581207,179.141708 
	C323.369263,169.582596 325.241119,160.997406 328.106476,152.161118 
	C328.814758,149.976883 328.483673,147.378784 328.283752,145.000061 
	C328.109283,142.923859 327.077362,140.889206 327.074310,138.835236 
	C327.067200,134.060760 327.464539,129.286224 327.674835,124.510696 
	C327.861511,120.271614 328.046692,116.032089 328.179413,111.791100 
	C328.388977,105.093750 328.576172,98.395416 328.700317,91.696159 
	C328.711456,91.094582 328.209991,90.474762 327.917664,89.877586 
	C322.894592,79.616249 324.969025,68.762688 325.630341,58.136829 
	C325.983917,52.455311 328.225555,46.913696 328.896606,41.224197 
	C329.861023,33.046993 329.584473,33.134972 338.107849,32.909763 
	C340.088470,32.857430 342.039185,31.673695 344.469391,31.007530 
	C349.622498,31.006365 354.309845,31.008219 359.039124,31.304140 
	C359.485535,31.911608 359.890015,32.225006 360.294495,32.538406 
	C360.530792,32.029629 360.767090,31.520853 361.282562,30.996347 
	C362.037018,30.727930 362.512268,30.475241 362.987549,30.222549 
	C386.999908,30.902815 409.510925,36.221375 428.215820,52.326790 
	C433.480347,56.859657 437.938110,62.329502 442.449860,67.691513 
	C439.770844,66.215218 437.273438,64.566116 435.075195,62.585049 
	C431.459076,59.326118 428.036713,55.852184 424.532623,52.468906 
	C424.034027,52.856312 423.535431,53.243717 423.036804,53.631126 
	C423.206604,55.034821 423.292450,56.454781 423.560791,57.839375 
	C424.677063,63.599289 426.556458,69.319000 426.798187,75.110130 
	C427.034973,80.783188 425.673798,86.531776 424.885620,92.229454 
	C424.764313,93.106522 424.153381,94.213013 423.427948,94.659676 
	C419.593781,97.020439 421.288818,98.949394 423.456848,101.381416 
	C424.642548,102.711525 425.587463,104.809128 425.583282,106.558121 
	C425.554535,118.616440 425.183868,130.673538 425.078217,142.732391 
	C425.055237,145.352768 426.135376,148.023605 425.891998,150.593994 
	C424.954437,160.493790 423.559875,170.360123 426.805908,180.128830 
	C427.043945,180.845215 426.755981,181.756531 426.640198,182.566879 
	C426.107513,186.294861 425.095032,190.016541 425.073547,193.745224 
	C424.931335,218.403381 424.895630,243.063553 425.081909,267.721130 
	C425.122589,273.107697 426.245789,278.482117 426.763916,283.872375 
	C426.869965,284.975739 426.543427,286.132904 426.340637,287.251556 
	C425.449890,292.165833 422.793579,296.248932 424.216919,302.208649 
	C426.109344,310.132294 424.949799,318.800018 424.985199,327.148560 
	C425.040985,340.310883 424.780426,353.478729 425.085846,366.634216 
	C425.257385,374.022949 426.320526,381.389679 426.914093,388.771759 
	C426.986755,389.675079 426.638031,390.612274 426.417114,391.938782 
	C422.624969,390.392029 419.226990,390.327362 418.317657,394.799988 
	C417.514557,398.750214 417.661499,402.628265 423.268463,403.241150 
	C423.944580,403.315063 424.795441,405.152679 424.916534,406.244812 
	C425.172089,408.549316 424.851471,410.912689 425.029175,413.231842 
	C425.454468,418.782166 426.031219,424.320862 426.546844,429.864258 
	C427.296753,430.107758 428.046661,430.351288 428.796539,430.594818 
	C430.372894,429.060822 432.361908,427.768890 433.434998,425.939667 
	C435.351074,422.673492 436.436615,418.965332 440.861755,417.879333 
	C441.825500,417.642792 442.521667,415.682220 443.041718,414.394745 
	C444.396851,411.040009 445.783600,407.842316 450.246399,408.084442 
	C439.695862,428.887054 423.162079,442.915405 401.482941,451.089600 
	C399.316956,451.906342 397.059204,452.479614 394.231934,452.871887 
	C390.987701,452.577301 388.328735,452.372040 385.741211,452.711548 
	C385.044098,452.803009 384.563995,454.548737 383.984283,455.535126 
z"/>
<path fill="#0D3A37" opacity="1.000000" stroke="none" 
	d="
M148.007996,247.008820 
	C146.574265,246.721008 145.020844,246.694519 143.726807,246.101791 
	C136.779602,242.919556 136.923859,243.002304 142.441513,237.881302 
	C144.798508,235.693726 146.337677,232.897705 143.647064,229.576523 
	C142.780045,228.506332 142.133835,226.881317 142.161850,225.526154 
	C142.293457,219.159241 142.948364,212.798325 142.959274,206.434494 
	C143.036041,161.658890 142.661148,116.878609 143.251587,72.110657 
	C143.389587,61.646042 142.461639,51.231544 142.903870,40.776703 
	C143.089859,36.380016 144.190170,34.550121 149.043823,33.834476 
	C180.297470,29.226294 211.721390,31.652969 243.470795,31.360342 
	C241.820190,35.331680 239.969772,39.087513 237.643738,42.521133 
	C235.709824,45.375927 235.417053,47.177013 238.605469,49.501747 
	C243.209824,52.858894 241.866943,60.047596 236.625137,62.110157 
	C236.003998,62.354565 235.556412,63.040085 234.896454,63.641304 
	C235.552185,64.207481 235.894333,64.520233 236.254410,64.810783 
	C237.808670,66.064896 240.143356,67.062363 240.655579,68.649681 
	C241.001968,69.723099 238.805954,71.638359 237.708771,73.149239 
	C236.859985,74.318054 235.615189,75.315849 235.123856,76.609062 
	C231.570175,85.962204 238.313431,94.342430 237.825714,103.441460 
	C237.804672,103.834183 238.462585,104.219864 238.618118,104.672745 
	C239.444839,107.079994 240.649353,109.461876 240.908585,111.937820 
	C241.442047,117.032982 240.447830,122.500481 241.936584,127.231209 
	C243.941879,133.603348 242.317184,138.706879 238.862839,143.438858 
	C236.621429,146.509308 236.771210,149.045380 238.057327,152.190704 
	C239.227646,155.052795 240.387054,158.012909 240.873032,161.038742 
	C241.555695,165.289078 241.629410,169.651627 235.438644,169.502197 
	C234.449600,173.368729 235.481583,175.432693 238.873856,177.486099 
	C240.469284,178.451843 240.135620,182.604446 240.676117,185.312912 
	C239.303879,185.543961 237.911865,186.040253 236.564346,185.939758 
	C234.831177,185.810501 233.133728,185.202560 231.420883,184.800797 
	C231.955872,186.725647 232.277451,188.748016 233.097534,190.542572 
	C233.687637,191.833878 235.024002,192.763138 235.879822,193.959518 
	C236.886993,195.367493 237.734680,196.889557 238.651535,198.362137 
	C237.018051,199.243652 235.459198,200.643951 233.734604,200.891983 
	C230.719971,201.325546 229.613113,202.473511 230.401947,205.448624 
	C233.469528,206.039917 237.531586,201.376724 238.837189,207.586670 
	C214.635284,215.651535 200.759598,239.492081 207.114059,262.708557 
	C211.566498,278.975769 222.575958,289.468140 238.149796,295.677612 
	C237.263290,296.385529 236.432465,297.018707 235.617355,296.999115 
	C234.247131,296.966125 232.886932,296.518127 231.522507,296.244720 
	C232.253723,298.570648 233.173920,300.044098 234.494370,300.900177 
	C237.737381,303.002686 238.658234,305.986176 237.950943,309.455872 
	C236.929092,314.468567 236.392380,319.156616 240.444534,323.351471 
	C241.338882,324.277313 241.000839,326.540802 240.971436,328.183655 
	C240.889038,332.787170 239.331131,337.897003 240.837311,341.864929 
	C242.837677,347.134735 243.888397,351.608551 241.008850,356.600922 
	C240.125961,358.131622 239.181732,359.691681 238.684479,361.362946 
	C238.116180,363.272949 237.031235,366.274078 237.877899,367.148895 
	C241.965530,371.372559 240.666809,376.416565 241.061081,381.274811 
	C241.328461,384.569458 242.174850,387.817108 242.943024,392.091522 
	C238.948303,398.437439 236.656769,401.146484 233.969116,401.935852 
	C234.117355,404.062988 233.413025,407.080078 234.604355,408.457001 
	C237.541397,411.851562 236.895523,415.561554 236.999115,419.308899 
	C237.152069,424.843170 235.765701,430.704193 240.512741,435.256592 
	C240.909836,435.637421 241.073059,436.568512 240.938919,437.150360 
	C239.262680,444.420685 241.307861,450.688354 245.887985,456.339813 
	C246.143143,456.654633 245.974121,457.313232 246.002533,457.811829 
	C233.638214,457.863770 221.273911,457.915680 208.444824,457.893066 
	C206.387985,457.545044 204.805054,457.116730 203.202423,457.021881 
	C185.566879,455.978424 167.924591,455.045807 150.292770,453.944489 
	C145.143723,453.622894 143.020966,451.093567 143.012222,445.786072 
	C142.981796,427.322571 142.160141,408.800049 143.448990,390.426880 
	C143.909836,383.857452 143.018555,377.649353 143.009720,371.276245 
	C142.982971,351.981018 143.000015,332.685760 143.000000,313.390503 
	C143.000000,311.582245 143.000000,309.773956 143.000000,307.965698 
	C142.656708,308.171112 142.313431,308.376556 141.970139,308.582001 
	C140.417526,306.946716 138.864914,305.311401 137.312317,303.676117 
	C139.867981,303.229858 142.423645,302.783569 144.979309,302.337311 
	C144.959045,302.468964 144.938782,302.600616 144.918518,302.732300 
	C147.241364,301.812927 149.659698,301.072601 151.849854,299.904480 
	C153.087524,299.244385 153.950043,297.880859 155.245499,296.302856 
	C155.955826,295.161621 156.402176,294.551758 157.189850,293.912415 
	C158.189407,292.431732 158.941986,291.014709 159.484528,289.521423 
	C160.371124,287.081207 160.821091,284.155518 164.689758,286.342529 
	C164.818604,286.883728 164.866516,287.101074 165.060654,287.680847 
	C166.421936,288.358093 167.630142,288.911743 168.853180,288.946655 
	C174.219254,289.099854 180.223465,287.518890 182.785446,294.612152 
	C182.872559,294.853333 183.695862,294.828613 184.519012,295.154999 
	C190.241409,295.598114 195.620819,295.814056 201.089661,296.188965 
	C201.452011,296.243256 201.724930,296.138580 202.398849,295.949219 
	C204.408051,295.864532 206.016266,295.864532 208.064346,295.864532 
	C207.456970,294.021362 207.079971,292.772705 206.636841,291.547974 
	C197.082916,265.142487 187.536957,238.734100 177.927521,212.348831 
	C177.278549,210.566895 176.358597,207.718262 175.187897,207.512802 
	C171.832809,206.924026 168.278244,207.360321 164.816650,207.601913 
	C164.249359,207.641525 163.385712,208.682526 163.287750,209.352615 
	C162.625931,213.879837 158.830444,217.913620 160.745407,222.982880 
	C158.597427,224.714905 156.805252,226.363770 155.034393,228.304001 
	C155.361847,229.060501 155.667969,229.525665 155.993073,230.284363 
	C155.750671,231.081909 155.489273,231.585907 154.865845,232.118195 
	C153.337662,234.100708 152.171494,236.054962 150.617554,238.013611 
	C146.156601,239.790115 145.868942,241.192184 149.001434,244.335724 
	C148.669296,245.452026 148.338638,246.230423 148.007996,247.008820 
z"/>
<path fill="#0A3734" opacity="1.000000" stroke="none" 
	d="
M239.114243,207.370758 
	C237.531586,201.376724 233.469528,206.039917 230.401947,205.448624 
	C229.613113,202.473511 230.719971,201.325546 233.734604,200.891983 
	C235.459198,200.643951 237.018051,199.243652 238.651535,198.362137 
	C237.734680,196.889557 236.886993,195.367493 235.879822,193.959518 
	C235.024002,192.763138 233.687637,191.833878 233.097534,190.542572 
	C232.277451,188.748016 231.955872,186.725647 231.420883,184.800797 
	C233.133728,185.202560 234.831177,185.810501 236.564346,185.939758 
	C237.911865,186.040253 239.303879,185.543961 240.676117,185.312912 
	C240.135620,182.604446 240.469284,178.451843 238.873856,177.486099 
	C235.481583,175.432693 234.449600,173.368729 235.438644,169.502197 
	C241.629410,169.651627 241.555695,165.289078 240.873032,161.038742 
	C240.387054,158.012909 239.227646,155.052795 238.057327,152.190704 
	C236.771210,149.045380 236.621429,146.509308 238.862839,143.438858 
	C242.317184,138.706879 243.941879,133.603348 241.936584,127.231209 
	C240.447830,122.500481 241.442047,117.032982 240.908585,111.937820 
	C240.649353,109.461876 239.444839,107.079994 238.618118,104.672745 
	C238.462585,104.219864 237.804672,103.834183 237.825714,103.441460 
	C238.313431,94.342430 231.570175,85.962204 235.123856,76.609062 
	C235.615189,75.315849 236.859985,74.318054 237.708771,73.149239 
	C238.805954,71.638359 241.001968,69.723099 240.655579,68.649681 
	C240.143356,67.062363 237.808670,66.064896 236.254410,64.810783 
	C235.894333,64.520233 235.552185,64.207481 234.896454,63.641304 
	C235.556412,63.040085 236.003998,62.354565 236.625137,62.110157 
	C241.866943,60.047596 243.209824,52.858894 238.605469,49.501747 
	C235.417053,47.177013 235.709824,45.375927 237.643738,42.521133 
	C239.969772,39.087513 241.820190,35.331680 243.939606,31.363653 
	C263.295380,31.008335 282.588074,31.013187 301.880707,30.987230 
	C303.696136,30.984785 305.511261,30.788349 307.650635,30.428267 
	C308.739410,30.126110 309.504089,30.077667 310.970703,30.355072 
	C322.449677,30.790796 333.226654,30.900673 344.003662,31.010550 
	C342.039185,31.673695 340.088470,32.857430 338.107849,32.909763 
	C329.584473,33.134972 329.861023,33.046993 328.896606,41.224197 
	C328.225555,46.913696 325.983917,52.455311 325.630341,58.136829 
	C324.969025,68.762688 322.894592,79.616249 327.917664,89.877586 
	C328.209991,90.474762 328.711456,91.094582 328.700317,91.696159 
	C328.576172,98.395416 328.388977,105.093750 328.179413,111.791100 
	C328.046692,116.032089 327.861511,120.271614 327.674835,124.510696 
	C327.464539,129.286224 327.067200,134.060760 327.074310,138.835236 
	C327.077362,140.889206 328.109283,142.923859 328.283752,145.000061 
	C328.483673,147.378784 328.814758,149.976883 328.106476,152.161118 
	C325.241119,160.997406 323.369263,169.582596 325.581207,179.141708 
	C327.105103,185.727203 326.407318,192.912003 326.109711,199.803375 
	C325.916077,204.287369 327.590027,206.174606 331.968597,204.360413 
	C334.747009,203.209213 336.326355,203.169891 337.015869,206.704559 
	C337.062653,207.009842 337.138855,207.087555 337.138855,207.087555 
	C335.245087,208.120773 332.483765,208.683273 331.619995,210.275330 
	C329.019989,215.067307 327.158966,220.260223 324.679016,225.528122 
	C323.464539,225.609085 322.580780,225.458694 321.846069,225.158936 
	C321.995117,225.009583 321.689484,225.300369 321.738770,224.936829 
	C320.458344,223.412704 319.128632,222.252121 317.567871,221.014496 
	C317.038483,220.555481 316.740173,220.173477 316.547485,219.394989 
	C315.949463,218.583115 315.245789,218.167740 314.448669,217.685532 
	C314.355286,217.618698 314.240997,217.419434 314.407318,217.083038 
	C313.080902,215.480667 311.588196,214.214706 310.056366,212.962204 
	C310.017273,212.975662 310.051910,212.900589 310.036865,212.524887 
	C308.871735,211.165039 307.721649,210.180908 306.318909,209.080078 
	C305.722137,208.531906 305.378082,208.100418 304.996521,207.403748 
	C304.305634,207.096985 303.652252,207.055389 302.559387,207.089539 
	C300.716309,207.262207 299.312714,207.359146 297.268921,207.500305 
	C297.268921,213.928238 297.268921,219.963211 296.994995,226.134155 
	C296.903900,227.848160 297.086731,229.426193 297.415436,231.414673 
	C297.132416,235.731766 297.996521,239.192047 301.026672,242.299591 
	C300.939423,244.959534 300.864624,247.220215 300.499664,249.316162 
	C299.554474,248.558090 298.899506,247.964767 297.892181,247.052277 
	C297.643982,249.745880 297.450714,251.843658 296.918335,254.206604 
	C296.426941,266.823334 296.260834,279.174835 296.171753,291.526855 
	C296.168091,292.034332 296.888397,292.547058 297.420532,293.417389 
	C297.938751,294.446838 298.320343,295.706146 298.675079,295.698639 
	C305.846069,295.546539 313.013977,295.249023 320.409485,294.759216 
	C320.502747,293.364136 320.369049,292.190552 320.152710,290.553925 
	C320.046326,283.394012 320.022614,276.697174 320.241455,269.790955 
	C321.597015,267.659210 316.908661,264.839508 321.449738,263.490967 
	C321.466187,263.537109 321.556274,263.575745 321.427917,263.927765 
	C322.908295,265.850006 324.517059,267.420227 326.307007,269.263611 
	C328.666046,271.672699 330.843842,273.808624 333.021667,275.944550 
	C332.780151,276.167877 332.571625,276.526581 332.292236,276.594757 
	C325.421844,278.270874 325.478577,278.903076 326.359467,286.019318 
	C327.201111,292.818237 326.878906,299.761292 327.062958,306.641144 
	C327.071808,306.972351 326.914917,307.351196 327.027557,307.630188 
	C331.208435,317.982208 324.763702,327.985962 326.033661,338.214935 
	C326.700134,343.582855 327.782684,348.898041 328.532379,354.257324 
	C328.777740,356.011139 329.149872,358.098389 328.468933,359.573944 
	C323.784576,369.724701 324.302429,380.137543 326.391113,390.690613 
	C326.519409,391.338776 326.860840,391.961609 326.898895,392.608276 
	C327.617432,404.814240 328.339844,417.020264 328.952789,429.231720 
	C329.024719,430.664703 328.927246,432.510864 328.109680,433.515808 
	C323.864929,438.733368 326.767822,444.249512 327.245667,449.616577 
	C327.322601,450.480743 328.898865,451.684570 329.954681,451.905182 
	C334.147308,452.781433 338.387451,453.617920 342.649384,453.928375 
	C348.210632,454.333527 353.820129,454.065155 359.384766,454.442169 
	C360.939331,454.547485 362.408936,455.906311 363.957092,457.091278 
	C363.996704,457.492432 363.900299,457.433228 363.526794,457.353516 
	C362.772156,457.458038 362.390991,457.642273 362.009827,457.826538 
	C323.649445,457.872314 285.289032,457.918091 246.465591,457.887848 
	C245.974121,457.313232 246.143143,456.654633 245.887985,456.339813 
	C241.307861,450.688354 239.262680,444.420685 240.938919,437.150360 
	C241.073059,436.568512 240.909836,435.637421 240.512741,435.256592 
	C235.765701,430.704193 237.152069,424.843170 236.999115,419.308899 
	C236.895523,415.561554 237.541397,411.851562 234.604355,408.457001 
	C233.413025,407.080078 234.117355,404.062988 233.969116,401.935852 
	C236.656769,401.146484 238.948303,398.437439 242.943024,392.091522 
	C242.174850,387.817108 241.328461,384.569458 241.061081,381.274811 
	C240.666809,376.416565 241.965530,371.372559 237.877899,367.148895 
	C237.031235,366.274078 238.116180,363.272949 238.684479,361.362946 
	C239.181732,359.691681 240.125961,358.131622 241.008850,356.600922 
	C243.888397,351.608551 242.837677,347.134735 240.837311,341.864929 
	C239.331131,337.897003 240.889038,332.787170 240.971436,328.183655 
	C241.000839,326.540802 241.338882,324.277313 240.444534,323.351471 
	C236.392380,319.156616 236.929092,314.468567 237.950943,309.455872 
	C238.658234,305.986176 237.737381,303.002686 234.494370,300.900177 
	C233.173920,300.044098 232.253723,298.570648 231.522507,296.244720 
	C232.886932,296.518127 234.247131,296.966125 235.617355,296.999115 
	C236.432465,297.018707 237.263290,296.385529 238.501923,295.707855 
	C239.610596,295.943970 240.304413,296.518005 240.998764,297.506836 
	C241.084808,299.487854 241.170303,301.054138 241.269882,302.878204 
	C245.568970,302.564178 244.952713,299.896393 245.102417,297.213379 
	C246.297943,296.316284 248.042175,295.765686 248.058777,295.167206 
	C248.250763,288.244873 248.181366,281.315277 248.181366,274.566193 
	C236.488617,271.469543 228.549316,263.196960 228.248978,253.089783 
	C227.844543,239.479691 235.812653,231.917953 247.840637,228.243637 
	C247.840637,220.690353 247.840637,213.461838 247.840637,206.002579 
	C244.666107,206.500305 241.890182,206.935532 239.114243,207.370758 
M265.121338,269.578003 
	C261.530579,271.502106 257.939789,273.426208 254.459900,275.290924 
	C254.459900,282.349945 254.459900,289.551117 254.459900,296.990021 
	C268.427155,295.337463 279.238922,289.256653 287.633026,277.962585 
	C281.912628,274.503540 276.563110,271.503479 271.484375,268.099396 
	C268.917023,266.378571 267.304840,266.889008 265.121338,269.578003 
M275.139465,232.632782 
	C279.200989,230.137390 283.262512,227.642014 287.590729,224.982758 
	C279.092255,213.535095 268.157990,207.617996 254.389648,206.185196 
	C254.389648,213.745987 254.389648,221.131363 254.389648,227.370148 
	C259.783508,230.510376 264.420868,233.210205 269.332458,236.069672 
	C270.786224,235.208237 272.643677,234.107574 275.139465,232.632782 
M242.407639,405.195709 
	C242.791245,405.200043 243.174835,405.204407 243.558441,405.208771 
	C243.560089,405.049591 243.572510,404.752136 243.561829,404.751312 
	C243.180115,404.721558 242.796249,404.719574 242.407639,405.195709 
M296.417297,209.484558 
	C296.417297,209.484558 296.518951,209.424561 296.417297,209.484558 
z"/>
<path fill="#01332F" opacity="1.000000" stroke="none" 
	d="
M450.529419,407.853485 
	C445.783600,407.842316 444.396851,411.040009 443.041718,414.394745 
	C442.521667,415.682220 441.825500,417.642792 440.861755,417.879333 
	C436.436615,418.965332 435.351074,422.673492 433.434998,425.939667 
	C432.361908,427.768890 430.372894,429.060822 428.796539,430.594818 
	C428.046661,430.351288 427.296753,430.107758 426.546844,429.864258 
	C426.031219,424.320862 425.454468,418.782166 425.029175,413.231842 
	C424.851471,410.912689 425.172089,408.549316 424.916534,406.244812 
	C424.795441,405.152679 423.944580,403.315063 423.268463,403.241150 
	C417.661499,402.628265 417.514557,398.750214 418.317657,394.799988 
	C419.226990,390.327362 422.624969,390.392029 426.417114,391.938782 
	C426.638031,390.612274 426.986755,389.675079 426.914093,388.771759 
	C426.320526,381.389679 425.257385,374.022949 425.085846,366.634216 
	C424.780426,353.478729 425.040985,340.310883 424.985199,327.148560 
	C424.949799,318.800018 426.109344,310.132294 424.216919,302.208649 
	C422.793579,296.248932 425.449890,292.165833 426.340637,287.251556 
	C426.543427,286.132904 426.869965,284.975739 426.763916,283.872375 
	C426.245789,278.482117 425.122589,273.107697 425.081909,267.721130 
	C424.895630,243.063553 424.931335,218.403381 425.073547,193.745224 
	C425.095032,190.016541 426.107513,186.294861 426.640198,182.566879 
	C426.755981,181.756531 427.043945,180.845215 426.805908,180.128830 
	C423.559875,170.360123 424.954437,160.493790 425.891998,150.593994 
	C426.135376,148.023605 425.055237,145.352768 425.078217,142.732391 
	C425.183868,130.673538 425.554535,118.616440 425.583282,106.558121 
	C425.587463,104.809128 424.642548,102.711525 423.456848,101.381416 
	C421.288818,98.949394 419.593781,97.020439 423.427948,94.659676 
	C424.153381,94.213013 424.764313,93.106522 424.885620,92.229454 
	C425.673798,86.531776 427.034973,80.783188 426.798187,75.110130 
	C426.556458,69.319000 424.677063,63.599289 423.560791,57.839375 
	C423.292450,56.454781 423.206604,55.034821 423.036804,53.631126 
	C423.535431,53.243717 424.034027,52.856312 424.532623,52.468906 
	C428.036713,55.852184 431.459076,59.326118 435.075195,62.585049 
	C437.273438,64.566116 439.770844,66.215218 442.512695,68.021027 
	C443.477112,68.699722 444.062653,69.370834 444.391266,70.520340 
	C442.963745,75.110977 444.974579,78.046707 450.236328,79.907318 
	C450.875122,81.028870 451.513916,82.150421 451.829529,83.663345 
	C448.546906,87.681091 451.450104,87.710594 453.927643,88.001236 
	C454.665833,89.744614 455.404053,91.487991 455.894531,93.743164 
	C456.034637,94.837524 456.422455,95.420090 456.810272,96.002655 
	C457.886322,102.991623 458.962372,109.980598 460.132874,117.643066 
	C460.485382,118.544586 460.743439,118.772621 461.001495,119.000656 
	C461.074127,119.739670 461.146759,120.478668 460.870605,121.837723 
	C460.935822,124.640877 461.349792,126.823990 461.763794,129.007095 
	C461.836853,133.704193 461.909912,138.401276 461.659912,143.866516 
	C461.504639,147.751831 461.672394,150.868988 461.840149,153.986160 
	C461.889130,174.355392 461.938080,194.724640 461.656006,215.880768 
	C461.496704,225.107162 461.668427,233.546661 461.840149,241.986160 
	C461.889069,243.714233 461.938019,245.442291 461.656433,247.918427 
	C461.497101,254.439850 461.668243,260.213196 461.839386,265.986572 
	C461.888428,267.714417 461.937469,269.442261 461.662476,271.901855 
	C461.505432,275.751282 461.672424,278.868927 461.839386,281.986572 
	C461.888611,291.688904 461.937836,301.391266 461.662750,311.863617 
	C461.505463,315.751221 461.672485,318.868835 461.839478,321.986420 
	C461.888580,323.714355 461.937653,325.442322 461.664978,327.895142 
	C461.508453,331.408508 461.673737,334.197052 461.839020,336.985565 
	C461.886780,341.016205 461.934509,345.046844 461.529053,349.648529 
	C460.717255,353.880463 460.225677,357.534668 460.041931,361.204315 
	C459.894501,364.149841 460.120209,367.114044 460.180298,370.069977 
	C460.122131,370.807129 460.063965,371.544250 459.720032,372.888123 
	C459.288879,374.654419 459.143463,375.814056 458.998047,376.973663 
	C457.324371,384.346710 455.758453,391.746674 453.923889,399.079468 
	C453.192322,402.003601 451.867249,404.779266 450.529419,407.853485 
z"/>
<path fill="#133C3A" opacity="1.000000" stroke="none" 
	d="
M344.469391,31.007530 
	C333.226654,30.900673 322.449677,30.790796 311.348511,30.427185 
	C328.040161,30.121367 345.055908,30.069283 362.529602,30.119875 
	C362.512268,30.475241 362.037018,30.727930 360.948181,30.991961 
	C359.888855,31.005560 359.443024,31.007816 358.997223,31.010075 
	C354.309845,31.008219 349.622498,31.006365 344.469391,31.007530 
z"/>
<path fill="#10302E" opacity="1.000000" stroke="none" 
	d="
M460.556274,369.910309 
	C460.120209,367.114044 459.894501,364.149841 460.041931,361.204315 
	C460.225677,357.534668 460.717255,353.880463 461.455688,350.106445 
	C461.534454,356.579071 461.233368,363.164856 460.556274,369.910309 
z"/>
<path fill="#043531" opacity="1.000000" stroke="none" 
	d="
M450.186768,79.553200 
	C444.974579,78.046707 442.963745,75.110977 444.494568,70.842087 
	C446.615601,73.523308 448.376404,76.361191 450.186768,79.553200 
z"/>
<path fill="#10302E" opacity="1.000000" stroke="none" 
	d="
M461.917786,241.524078 
	C461.668427,233.546661 461.496704,225.107162 461.582214,216.345795 
	C461.891449,224.369934 461.943420,232.715958 461.917786,241.524078 
z"/>
<path fill="#0A3734" opacity="1.000000" stroke="none" 
	d="
M384.364349,455.554504 
	C384.563995,454.548737 385.044098,452.803009 385.741211,452.711548 
	C388.328735,452.372040 390.987701,452.577301 393.842529,452.867554 
	C390.958252,453.962677 387.851318,454.768250 384.364349,455.554504 
z"/>
<path fill="#10302E" opacity="1.000000" stroke="none" 
	d="
M461.916382,265.525085 
	C461.668243,260.213196 461.497101,254.439850 461.583038,248.345139 
	C461.891235,253.703720 461.942322,259.383667 461.916382,265.525085 
z"/>
<path fill="#10302E" opacity="1.000000" stroke="none" 
	d="
M461.811218,128.597717 
	C461.349792,126.823990 460.935822,124.640877 460.813110,122.207657 
	C461.355804,124.034477 461.607239,126.111404 461.811218,128.597717 
z"/>
<path fill="#043531" opacity="1.000000" stroke="none" 
	d="
M453.947754,87.673668 
	C451.450104,87.710594 448.546906,87.681091 451.862488,83.992340 
	C452.801697,85.068680 453.384766,86.207390 453.947754,87.673668 
z"/>
<path fill="#0A3734" opacity="1.000000" stroke="none" 
	d="
M375.370972,456.785187 
	C376.442535,454.211792 378.157196,452.759857 380.930908,455.580688 
	C379.250366,456.233002 377.499878,456.543823 375.370972,456.785187 
z"/>
<path fill="#10302E" opacity="1.000000" stroke="none" 
	d="
M461.916260,281.539307 
	C461.672424,278.868927 461.505432,275.751282 461.588928,272.328522 
	C461.890625,275.046265 461.941864,278.069153 461.916260,281.539307 
z"/>
<path fill="#10302E" opacity="1.000000" stroke="none" 
	d="
M461.916809,321.539246 
	C461.672485,318.868835 461.505463,315.751221 461.588959,312.328613 
	C461.891022,315.046387 461.942566,318.069214 461.916809,321.539246 
z"/>
<path fill="#10302E" opacity="1.000000" stroke="none" 
	d="
M461.917603,153.539001 
	C461.672394,150.868988 461.504639,147.751831 461.586792,144.329163 
	C461.889496,147.046402 461.942261,150.069138 461.917603,153.539001 
z"/>
<path fill="#10302E" opacity="1.000000" stroke="none" 
	d="
M461.916412,336.542725 
	C461.673737,334.197052 461.508453,331.408508 461.591309,328.321777 
	C461.890900,330.715668 461.942352,333.407806 461.916412,336.542725 
z"/>
<path fill="#0A3734" opacity="1.000000" stroke="none" 
	d="
M369.415161,457.309631 
	C369.595886,454.387970 370.936798,454.261200 372.926910,456.585083 
	C371.939819,457.065704 370.878510,457.198792 369.415161,457.309631 
z"/>
<path fill="#10302E" opacity="1.000000" stroke="none" 
	d="
M459.227783,376.783112 
	C459.143463,375.814056 459.288879,374.654419 459.693542,373.257690 
	C459.787659,374.211243 459.622589,375.401886 459.227783,376.783112 
z"/>
<path fill="#043531" opacity="1.000000" stroke="none" 
	d="
M456.850342,95.716621 
	C456.422455,95.420090 456.034637,94.837524 455.883057,94.103035 
	C456.376343,94.444267 456.633362,94.937431 456.850342,95.716621 
z"/>
<path fill="#133C3A" opacity="1.000000" stroke="none" 
	d="
M362.325317,457.889221 
	C362.390991,457.642273 362.772156,457.458038 363.471466,457.365051 
	C363.406647,457.621490 363.023712,457.786713 362.325317,457.889221 
z"/>
<path fill="#10302E" opacity="1.000000" stroke="none" 
	d="
M461.044434,118.703735 
	C460.743439,118.772621 460.485382,118.544586 460.149994,118.065903 
	C460.410919,118.012451 460.749146,118.209641 461.044434,118.703735 
z"/>
<path fill="#F6FAFA" opacity="1.000000" stroke="none" 
	d="
M156.848526,293.941864 
	C156.402176,294.551758 155.955826,295.161621 155.255524,295.907410 
	C148.974640,295.982361 142.947723,295.921417 136.210602,295.865875 
	C135.335312,295.927246 135.170212,295.983215 135.005112,296.039154 
	C134.332458,295.587067 133.659790,295.134949 133.159470,294.048279 
	C135.847122,286.274292 138.362457,279.134918 140.877777,271.995514 
	C141.207642,271.306580 141.537506,270.617615 142.067566,269.283234 
	C146.587814,256.455170 150.907852,244.272537 155.227875,232.089920 
	C155.489273,231.585907 155.750671,231.081909 156.233887,230.042999 
	C157.067154,230.208282 157.973373,230.810318 158.244400,231.623947 
	C160.919418,239.654236 163.637131,247.676758 165.991119,255.803314 
	C166.631439,258.013794 166.610931,260.713470 165.994247,262.939423 
	C163.118149,273.321381 159.927002,283.615997 156.848526,293.941864 
z"/>
<path fill="#1F403C" opacity="1.000000" stroke="none" 
	d="
M154.865845,232.118195 
	C150.907852,244.272537 146.587814,256.455170 142.079803,268.899109 
	C141.623856,267.572784 140.724152,265.758942 141.197540,264.436676 
	C143.217209,258.795563 145.642685,253.299683 147.964035,247.379807 
	C148.338638,246.230423 148.669296,245.452026 149.143890,244.011475 
	C149.860321,241.569275 150.432831,239.789246 151.005325,238.009232 
	C152.171494,236.054962 153.337662,234.100708 154.865845,232.118195 
z"/>
<path fill="#1F403C" opacity="1.000000" stroke="none" 
	d="
M140.520020,272.050598 
	C138.362457,279.134918 135.847122,286.274292 133.119019,293.707336 
	C132.394318,293.504883 131.349091,292.815033 131.448624,292.541107 
	C133.847870,285.938446 136.355713,279.374878 138.906921,272.828796 
	C139.043655,272.477966 139.731155,272.341797 140.520020,272.050598 
z"/>
<path fill="#1F403C" opacity="1.000000" stroke="none" 
	d="
M135.095398,296.196716 
	C135.170212,295.983215 135.335312,295.927246 135.749084,295.952209 
	C135.727081,296.140167 135.456390,296.247223 135.095398,296.196716 
z"/>
<path fill="#F9FCFC" opacity="1.000000" stroke="none" 
	d="
M333.331360,276.079956 
	C330.843842,273.808624 328.666046,271.672699 326.327179,268.922180 
	C324.629517,266.730316 323.092896,265.153046 321.556274,263.575745 
	C321.556274,263.575745 321.466187,263.537109 321.293884,263.207397 
	C314.427460,255.885254 307.733307,248.892792 301.039154,241.900330 
	C297.996521,239.192047 297.132416,235.731766 297.556885,231.013367 
	C297.457977,228.800446 297.363464,227.399307 297.268921,225.998184 
	C297.268921,219.963211 297.268921,213.928238 297.268921,207.500305 
	C299.312714,207.359146 300.716309,207.262207 302.799805,207.208557 
	C303.997803,207.390869 304.515900,207.529907 305.033997,207.668930 
	C305.378082,208.100418 305.722137,208.531906 306.444061,209.379654 
	C307.898590,210.830795 308.975250,211.865692 310.051910,212.900589 
	C310.051910,212.900589 310.017273,212.975662 310.167084,213.257782 
	C311.624939,214.833084 312.932953,216.126266 314.240997,217.419434 
	C314.240997,217.419434 314.355286,217.618698 314.575439,217.940033 
	C315.344299,218.771393 315.893066,219.281433 316.441833,219.791473 
	C316.740173,220.173477 317.038483,220.555481 317.673035,221.322617 
	C319.235992,222.905304 320.462738,224.102829 321.689484,225.300369 
	C321.689484,225.300369 321.995117,225.009583 321.967682,225.461182 
	C323.631744,227.585388 325.323212,229.257980 327.014709,230.930573 
	C329.710999,233.900482 332.407318,236.870392 335.489990,240.270782 
	C336.198792,240.914841 336.521240,241.128418 336.843689,241.341980 
	C338.716461,243.453171 340.589233,245.564362 342.861816,248.129913 
	C344.490479,249.761658 345.719330,250.939041 346.948151,252.116425 
	C348.335846,253.699142 349.723541,255.281845 351.481262,257.279907 
	C352.418823,258.188354 352.986420,258.681366 353.554016,259.174408 
	C358.787872,263.298706 359.540253,268.836304 359.159607,275.084503 
	C358.748535,281.831848 359.066589,288.623627 359.066589,295.321350 
	C354.535034,296.592377 351.476715,295.612976 348.614899,292.229919 
	C343.900787,286.657257 338.659912,281.530212 333.331360,276.079956 
z"/>
<path fill="#F8FCFC" opacity="1.000000" stroke="none" 
	d="
M337.068298,207.063843 
	C337.073975,207.117828 337.549500,207.166016 338.176208,207.194031 
	C343.202728,207.149933 347.602570,207.077820 352.002380,207.005707 
	C352.753601,207.057373 353.504852,207.109024 354.953735,207.194763 
	C356.789368,207.354279 357.927338,207.479721 359.065277,207.605164 
	C359.065277,223.668823 359.065277,239.732468 359.065277,256.962769 
	C351.362183,248.734222 344.481262,241.465958 337.739838,234.070480 
	C336.966278,233.221893 336.670990,231.664551 336.665314,230.433456 
	C336.630859,222.943863 336.744568,215.453598 336.973846,207.525543 
	C337.138855,207.087555 337.062653,207.009842 337.068298,207.063843 
z"/>
<path fill="#254743" opacity="1.000000" stroke="none" 
	d="
M351.696228,206.729889 
	C347.602570,207.077820 343.202728,207.149933 338.402893,207.118347 
	C342.465271,206.827789 346.927704,206.640930 351.696228,206.729889 
z"/>
<path fill="#254743" opacity="1.000000" stroke="none" 
	d="
M327.016113,230.580536 
	C325.323212,229.257980 323.631744,227.585388 321.818634,225.610535 
	C322.580780,225.458694 323.464539,225.609085 324.667603,225.896851 
	C325.663788,227.432999 326.340637,228.831757 327.016113,230.580536 
z"/>
<path fill="#254743" opacity="1.000000" stroke="none" 
	d="
M346.962097,251.716965 
	C345.719330,250.939041 344.490479,249.761658 343.155457,248.281296 
	C345.418427,247.844589 347.319000,248.261902 346.962097,251.716965 
z"/>
<path fill="#254743" opacity="1.000000" stroke="none" 
	d="
M358.909729,207.342194 
	C357.927338,207.479721 356.789368,207.354279 355.324585,207.120636 
	C356.317383,203.238434 357.507599,206.743698 358.909729,207.342194 
z"/>
<path fill="#254743" opacity="1.000000" stroke="none" 
	d="
M353.839783,258.995026 
	C352.986420,258.681366 352.418823,258.188354 351.764130,257.421539 
	C352.493195,257.703735 353.309387,258.259674 353.839783,258.995026 
z"/>
<path fill="#0A3734" opacity="1.000000" stroke="none" 
	d="
M359.039124,31.304142 
	C359.443024,31.007816 359.888855,31.005560 360.669006,31.007689 
	C360.767090,31.520853 360.530792,32.029629 360.294495,32.538406 
	C359.890015,32.225006 359.485535,31.911608 359.039124,31.304142 
z"/>
<path fill="#254743" opacity="1.000000" stroke="none" 
	d="
M336.769226,241.045532 
	C336.521240,241.128418 336.198792,240.914841 335.779388,240.421112 
	C336.019867,240.343643 336.357330,240.546356 336.769226,241.045532 
z"/>
<path fill="#F9FCFC" opacity="1.000000" stroke="none" 
	d="
M240.998215,297.092072 
	C240.304413,296.518005 239.610596,295.943970 238.564667,295.339661 
	C222.575958,289.468140 211.566498,278.975769 207.114059,262.708557 
	C200.759598,239.492081 214.635284,215.651535 238.837189,207.586670 
	C241.890182,206.935532 244.666107,206.500305 247.840637,206.002579 
	C247.840637,213.461838 247.840637,220.690353 247.840637,228.243637 
	C235.812653,231.917953 227.844543,239.479691 228.248978,253.089783 
	C228.549316,263.196960 236.488617,271.469543 248.181366,274.566193 
	C248.181366,281.315277 248.250763,288.244873 248.058777,295.167206 
	C248.042175,295.765686 246.297943,296.316284 244.836731,296.992096 
	C243.210876,297.094055 242.104553,297.093079 240.998215,297.092072 
z"/>
<path fill="#F8FBFB" opacity="1.000000" stroke="none" 
	d="
M161.101212,222.899719 
	C158.830444,217.913620 162.625931,213.879837 163.287750,209.352615 
	C163.385712,208.682526 164.249359,207.641525 164.816650,207.601913 
	C168.278244,207.360321 171.832809,206.924026 175.187897,207.512802 
	C176.358597,207.718262 177.278549,210.566895 177.927521,212.348831 
	C187.536957,238.734100 197.082916,265.142487 206.636841,291.547974 
	C207.079971,292.772705 207.456970,294.021362 208.064346,295.864532 
	C206.016266,295.864532 204.408051,295.864532 202.149780,295.863525 
	C201.333237,295.918335 201.166733,295.974152 201.000244,296.029999 
	C195.620819,295.814056 190.241409,295.598114 184.507980,294.759216 
	C183.696945,288.713715 181.055405,286.346405 175.389694,287.166534 
	C171.962418,287.662598 168.410385,287.296906 164.914413,287.318420 
	C164.866516,287.101074 164.818604,286.883728 164.869720,286.000153 
	C166.672958,279.949524 168.194107,274.496582 170.172531,269.214905 
	C170.951035,267.136505 172.751129,265.440796 174.666473,262.757660 
	C171.038818,251.586227 167.043793,239.283493 162.991669,226.653870 
	C162.624329,225.552353 162.314102,224.777740 162.038116,223.713608 
	C161.742767,223.233582 161.413193,223.043060 161.062531,222.873871 
	C161.041443,222.895203 161.101212,222.899719 161.101212,222.899719 
z"/>
<path fill="#1F403C" opacity="1.000000" stroke="none" 
	d="
M163.048767,226.980774 
	C167.043793,239.283493 171.038818,251.586227 174.666473,262.757660 
	C172.751129,265.440796 170.951035,267.136505 170.172531,269.214905 
	C168.194107,274.496582 166.672958,279.949524 164.788788,285.676270 
	C160.821091,284.155518 160.371124,287.081207 159.484528,289.521423 
	C158.941986,291.014709 158.189407,292.431732 157.189850,293.912415 
	C159.927002,283.615997 163.118149,273.321381 165.994247,262.939423 
	C166.610931,260.713470 166.631439,258.013794 165.991119,255.803314 
	C163.637131,247.676758 160.919418,239.654236 158.244400,231.623947 
	C157.973373,230.810318 157.067154,230.208282 156.214905,229.749451 
	C155.667969,229.525665 155.361847,229.060501 155.443970,228.297501 
	C158.061111,229.381897 160.290039,230.764145 162.602692,232.198318 
	C162.742599,230.561905 162.895691,228.771347 163.048767,226.980774 
z"/>
<path fill="#1F403C" opacity="1.000000" stroke="none" 
	d="
M165.060654,287.680847 
	C168.410385,287.296906 171.962418,287.662598 175.389694,287.166534 
	C181.055405,286.346405 183.696945,288.713715 184.165009,294.532043 
	C183.695862,294.828613 182.872559,294.853333 182.785446,294.612152 
	C180.223465,287.518890 174.219254,289.099854 168.853180,288.946655 
	C167.630142,288.911743 166.421936,288.358093 165.060654,287.680847 
z"/>
<path fill="#133C3A" opacity="1.000000" stroke="none" 
	d="
M162.991669,226.653870 
	C162.895691,228.771347 162.742599,230.561905 162.602692,232.198318 
	C160.290039,230.764145 158.061111,229.381897 155.422638,228.006149 
	C156.805252,226.363770 158.597427,224.714905 160.745407,222.982880 
	C161.101212,222.899719 161.041443,222.895203 161.138306,223.119751 
	C161.491394,223.563919 161.747635,223.783524 162.003876,224.003128 
	C162.314102,224.777740 162.624329,225.552353 162.991669,226.653870 
z"/>
<path fill="#133C3A" opacity="1.000000" stroke="none" 
	d="
M150.617554,238.013611 
	C150.432831,239.789246 149.860321,241.569275 149.145355,243.673569 
	C145.868942,241.192184 146.156601,239.790115 150.617554,238.013611 
z"/>
<path fill="#1F403C" opacity="1.000000" stroke="none" 
	d="
M201.089661,296.188965 
	C201.166733,295.974152 201.333237,295.918335 201.748795,295.948242 
	C201.724930,296.138580 201.452011,296.243256 201.089661,296.188965 
z"/>
<path fill="#F8FCFC" opacity="1.000000" stroke="none" 
	d="
M297.257416,253.941437 
	C297.450714,251.843658 297.643982,249.745880 297.892181,247.052277 
	C298.899506,247.964767 299.554474,248.558090 300.622131,249.611938 
	C307.356140,256.715088 313.677490,263.357697 319.998871,270.000305 
	C320.022614,276.697174 320.046326,283.394012 320.056580,290.942322 
	C320.089600,292.856079 320.136078,293.918396 320.182526,294.980713 
	C313.013977,295.249023 305.846069,295.546539 298.675079,295.698639 
	C298.320343,295.706146 297.938751,294.446838 297.557098,292.960876 
	C297.448822,279.410034 297.353119,266.675751 297.257416,253.941437 
z"/>
<path fill="#F5FAFA" opacity="1.000000" stroke="none" 
	d="
M265.401855,269.325806 
	C267.304840,266.889008 268.917023,266.378571 271.484375,268.099396 
	C276.563110,271.503479 281.912628,274.503540 287.633026,277.962585 
	C279.238922,289.256653 268.427155,295.337463 254.459900,296.990021 
	C254.459900,289.551117 254.459900,282.349945 254.459900,275.290924 
	C257.939789,273.426208 261.530579,271.502106 265.401855,269.325806 
z"/>
<path fill="#F5FAFA" opacity="1.000000" stroke="none" 
	d="
M274.820312,232.819855 
	C272.643677,234.107574 270.786224,235.208237 269.332458,236.069672 
	C264.420868,233.210205 259.783508,230.510376 254.389648,227.370148 
	C254.389648,221.131363 254.389648,213.745987 254.389648,206.185196 
	C268.157990,207.617996 279.092255,213.535095 287.590729,224.982758 
	C283.262512,227.642014 279.200989,230.137390 274.820312,232.819855 
z"/>
<path fill="#1C3E3A" opacity="1.000000" stroke="none" 
	d="
M320.241455,269.790955 
	C313.677490,263.357697 307.356140,256.715088 300.912292,249.776688 
	C300.864624,247.220215 300.939423,244.959534 301.026672,242.299591 
	C307.733307,248.892792 314.427460,255.885254 321.277466,263.161255 
	C316.908661,264.839508 321.597015,267.659210 320.241455,269.790955 
z"/>
<path fill="#10302E" opacity="1.000000" stroke="none" 
	d="
M296.918335,254.206604 
	C297.353119,266.675751 297.448822,279.410034 297.407959,292.600830 
	C296.888397,292.547058 296.168091,292.034332 296.171753,291.526855 
	C296.260834,279.174835 296.426941,266.823334 296.918335,254.206604 
z"/>
<path fill="#0D3A37" opacity="1.000000" stroke="none" 
	d="
M240.998764,297.506836 
	C242.104553,297.093079 243.210876,297.094055 244.582916,297.316345 
	C244.952713,299.896393 245.568970,302.564178 241.269882,302.878204 
	C241.170303,301.054138 241.084808,299.487854 240.998764,297.506836 
z"/>
<path fill="#1C3E3A" opacity="1.000000" stroke="none" 
	d="
M321.427917,263.927765 
	C323.092896,265.153046 324.629517,266.730316 326.145996,268.649017 
	C324.517059,267.420227 322.908295,265.850006 321.427917,263.927765 
z"/>
<path fill="#254743" opacity="1.000000" stroke="none" 
	d="
M314.407318,217.083038 
	C312.932953,216.126266 311.624939,214.833084 310.206177,213.244324 
	C311.588196,214.214706 313.080902,215.480667 314.407318,217.083038 
z"/>
<path fill="#10302E" opacity="1.000000" stroke="none" 
	d="
M296.994995,226.134155 
	C297.363464,227.399307 297.457977,228.800446 297.411011,230.602890 
	C297.086731,229.426193 296.903900,227.848160 296.994995,226.134155 
z"/>
<path fill="#254743" opacity="1.000000" stroke="none" 
	d="
M321.738770,224.936829 
	C320.462738,224.102829 319.235992,222.905304 317.904053,221.399658 
	C319.128632,222.252121 320.458344,223.412704 321.738770,224.936829 
z"/>
<path fill="#254743" opacity="1.000000" stroke="none" 
	d="
M310.036865,212.524887 
	C308.975250,211.865692 307.898590,210.830795 306.696777,209.496338 
	C307.721649,210.180908 308.871735,211.165039 310.036865,212.524887 
z"/>
<path fill="#1C3E3A" opacity="1.000000" stroke="none" 
	d="
M320.409485,294.759216 
	C320.136078,293.918396 320.089600,292.856079 320.139221,291.405396 
	C320.369049,292.190552 320.502747,293.364136 320.409485,294.759216 
z"/>
<path fill="#254743" opacity="1.000000" stroke="none" 
	d="
M304.996521,207.403748 
	C304.515900,207.529907 303.997803,207.390869 303.239288,207.132812 
	C303.652252,207.055389 304.305634,207.096985 304.996521,207.403748 
z"/>
<path fill="#254743" opacity="1.000000" stroke="none" 
	d="
M316.547485,219.394989 
	C315.893066,219.281433 315.344299,218.771393 314.668823,218.006866 
	C315.245789,218.167740 315.949463,218.583115 316.547485,219.394989 
z"/>
<path fill="#0D3A37" opacity="1.000000" stroke="none" 
	d="
M242.410156,404.954712 
	C242.796249,404.719574 243.180115,404.721558 243.561829,404.751312 
	C243.572510,404.752136 243.560089,405.049591 243.558441,405.208771 
	C243.174835,405.204407 242.791245,405.200043 242.410156,404.954712 
z"/>
<path fill="#10302E" opacity="1.000000" stroke="none" 
	d="
M296.468140,209.454559 
	C296.518951,209.424561 296.417297,209.484558 296.468140,209.454559 
z"/>
<path fill="#1F403C" opacity="1.000000" stroke="none" 
	d="
M162.038116,223.713608 
	C161.747635,223.783524 161.491394,223.563919 161.159393,223.098419 
	C161.413193,223.043060 161.742767,223.233582 162.038116,223.713608 
z"/>
</svg>